<svg xmlns="http://www.w3.org/2000/svg" data-name="Layer 1" viewBox="0 0 100 125" x="0px" y="0px"><title>icons_books_4</title><path d="M47.79,3.93a9.2,9.2,0,0,0-9.16,2.46L5.31,40.93a7.27,7.27,0,0,0-2.5,2.59l-.65,1.57a7.27,7.27,0,0,0,3.09,8.15,6.87,6.87,0,0,0,.77.42c-.19.09-.37.18-.55.29a7.22,7.22,0,0,0-3.59,6.28,7.32,7.32,0,0,0,3.37,6.14,6.9,6.9,0,0,0,.77.42c-.19.09-.37.18-.55.29a7.22,7.22,0,0,0-3.59,6.28,7.31,7.31,0,0,0,3.37,6.14,7,7,0,0,0,1.82.84l50.11,15.1,1.3.39.7-.73L95,57.93V17.39L93.74,17ZM40.07,7.78a7.19,7.19,0,0,1,6.62-2L13.2,40.7l-1.94-.58-.13,0a7.59,7.59,0,0,0-.8-.18l-.33,0-.61,0-.22,0ZM57.19,84v9.3L7.83,78.47l-.19-.05a5,5,0,0,1-1.3-.6,5.31,5.31,0,0,1-2.45-4.45,5.31,5.31,0,0,1,5.27-5.29,5.43,5.43,0,0,1,1.54.23l46.49,14Zm0-13.13v9.3L7.83,65.34l-.19-.05a5,5,0,0,1-1.3-.6,5.31,5.31,0,0,1-2.45-4.45,5.29,5.29,0,0,1,6.81-5.06l18.84,5.68V71l6.84-4.72,7.26,9.39V65.09l13.55,4.08ZM31.53,67.24V54.64l10.1,3V69.86L36.8,63.61Zm25.65-.16L43.63,63V56.2L29.53,52v6.8L7.82,52.21l-.19-.05a5,5,0,0,1-1.3-.6A5.31,5.31,0,0,1,3.88,47.1a5.24,5.24,0,0,1,2.61-4.56,5.16,5.16,0,0,1,3.09-.71l.29,0,.26,0,.23.05.34.08L57.19,56Zm.7-12.91L15.35,41.35l33.54-35L92.16,18.65Zm35.15,3L59.19,92.21V82L93,46.88ZM93,44,59.19,79.08V68.84L93,33.75Zm0-13.13L59.19,66V55.71L93,20.62Z"/><path d="M49.1,13.75,28.69,35.27,59,44.42,81.12,21.94Zm9.31,28.4-26-7.87L49.74,16l27.51,7Z"/></svg>
