<svg xmlns="http://www.w3.org/2000/svg" xmlns:xlink="http://www.w3.org/1999/xlink" xml:space="preserve" style="shape-rendering:geometricPrecision;text-rendering:geometricPrecision;image-rendering:optimizeQuality;" viewBox="0 0 6827 8533.75" x="0px" y="0px" fill-rule="evenodd" clip-rule="evenodd"><defs><style type="text/css">

    .fil1 {fill:none}
    .fil0 {fill:black;fill-rule:nonzero}

  </style></defs><g><path class="fil0" d="M2013 1578l2625 0c44,0 80,36 80,80l0 318 -2785 0 0 -318c0,-44 36,-80 80,-80zm2705 558l0 245 -2785 0 0 -245 2785 0zm0 405l0 245 -2785 0 0 -245 2785 0zm0 405l0 318c0,44 -36,80 -80,80l-2625 0c-44,0 -80,-36 -80,-80l0 -318 2785 0z"/><path class="fil0" d="M2493 853l1667 0c30,0 56,16 70,41l475 720 0 0c24,37 14,87 -23,111 -14,9 -30,13 -45,13l-2624 0c-44,0 -80,-36 -80,-80 0,-18 6,-35 16,-48l476 -720 0 0c16,-24 42,-36 68,-36z"/><path class="fil0" d="M1141 4227c-132,-460 -14,-1405 -3,-1492 1,-21 10,-42 27,-57l0 0c332,-289 448,85 462,135 3,8 4,16 4,25l0 884 26 108 38 66 248 184 -169 -228c-8,-9 -14,-20 -17,-32l0 0c-174,-650 319,-389 376,-357 9,4 17,10 24,18l1027 1116c15,15 25,35 25,58l0 1239c0,44 -36,80 -80,80l-911 0c-44,0 -80,-36 -80,-80l0 -677c-175,-107 -872,-555 -997,-990z"/><path class="fil0" d="M5543 4227c132,-460 14,-1405 3,-1492 -1,-21 -10,-42 -27,-57l0 0c-332,-289 -448,85 -462,135 -3,8 -4,16 -4,25l0 884 -26 108 -38 66 -248 184 169 -228c8,-9 14,-20 17,-32l0 0c174,-650 -319,-389 -376,-357 -9,4 -17,10 -24,18l-1027 1116c-15,15 -25,35 -25,58l0 1239c0,44 36,80 80,80l911 0c44,0 80,-36 80,-80l0 -677c175,-107 872,-555 997,-990z"/></g><rect class="fil1" width="6827" height="6827"/></svg>
