<svg xmlns="http://www.w3.org/2000/svg" xmlns:xlink="http://www.w3.org/1999/xlink" version="1.1" x="0px" y="0px" viewBox="0 0 100 125" enable-background="new 0 0 100 100" xml:space="preserve"><g display="none"><rect x="-1107.879" y="-405.155" display="inline" fill="#000000" width="1286.936" height="912.422"/></g><g><path d="M50,19.967c-6.193,0-11.232,5.039-11.232,11.232S43.807,42.43,50,42.43c6.193,0,11.232-5.039,11.232-11.232   S56.193,19.967,50,19.967z M50,37.359c-3.402,0-6.16-2.758-6.16-6.16s2.758-6.16,6.16-6.16c3.402,0,6.16,2.758,6.16,6.16   S53.402,37.359,50,37.359z"/><circle cx="50" cy="31.198" r="1.877"/><polygon points="45.05,50.141 46.898,50.141 48.747,50.141 48.747,46.165 45.05,46.165  "/><polygon points="38.846,50.141 40.695,50.141 42.544,50.141 42.544,46.165 38.846,46.165  "/><polygon points="57.456,50.141 59.305,50.141 61.154,50.141 61.154,46.165 57.456,46.165  "/><polygon points="51.253,45.905 51.253,50.141 53.102,50.141 54.95,50.141 54.95,45.905 53.102,45.905  "/><path d="M78.112,50.621c4.906,0,8.898-4.08,8.898-9.094V30.956c4.577-1.138,7.99-5.358,7.99-10.39c0-3.601-1.76-6.934-4.709-8.917   l-2.751,4.09c1.585,1.066,2.531,2.871,2.531,4.828c0,3.183-2.478,5.772-5.522,5.772c-3.049,0-5.529-2.589-5.529-5.772   c0-1.956,0.947-3.761,2.532-4.828l-2.753-4.09c-2.948,1.985-4.708,5.318-4.708,8.917c0,5.03,3.413,9.249,7.99,10.388v10.572   c0,2.296-1.781,4.164-3.969,4.164h-6.927V28.114c0-8.88-7.224-16.104-16.104-16.104H44.919c-8.88,0-16.104,7.224-16.104,16.104   v17.577h-6.927c-2.188,0-3.969-1.868-3.969-4.164V30.955c4.578-1.14,7.99-5.359,7.99-10.388c0-3.6-1.76-6.933-4.707-8.917   l-2.753,4.09c1.585,1.066,2.531,2.871,2.531,4.828c0,3.183-2.48,5.772-5.529,5.772c-3.044,0-5.522-2.589-5.522-5.772   c0-1.956,0.947-3.761,2.532-4.828l-2.753-4.09C6.76,13.633,5,16.967,5,20.566c0,5.032,3.413,9.252,7.99,10.39v10.571   c0,5.014,3.992,9.094,8.898,9.094h6.927v4.848H27.69c-9.066,0-16.44,7.375-16.44,16.441c0,9.066,7.375,16.441,16.44,16.441h44.62   c9.066,0,16.441-7.375,16.441-16.441c0-9.065-7.375-16.441-16.441-16.441h-1.125v-4.848H78.112z M72.31,59.413   c6.892,0,12.499,5.606,12.499,12.497c0,6.891-5.607,12.498-12.499,12.498H27.69c-6.891,0-12.498-5.606-12.498-12.498   c0-6.891,5.607-12.497,12.498-12.497H72.31z M33.021,55.469V28.114c0-6.544,5.354-11.898,11.898-11.898h10.162   c6.544,0,11.898,5.354,11.898,11.898v27.355H33.021z"/><path d="M20.238,71.91c0,4.726,3.845,8.572,8.572,8.572s8.572-3.845,8.572-8.572c0-4.726-3.845-8.572-8.572-8.572   S20.238,67.184,20.238,71.91z M28.809,67.209c2.596,0,4.701,2.105,4.701,4.701c0,2.596-2.105,4.701-4.701,4.701   s-4.701-2.105-4.701-4.701C24.108,69.313,26.213,67.209,28.809,67.209z"/><circle cx="28.81" cy="71.91" r="1.432"/><path d="M50,80.481c4.726,0,8.571-3.845,8.571-8.572c0-4.726-3.845-8.572-8.571-8.572s-8.572,3.845-8.572,8.572   C41.429,76.636,45.274,80.481,50,80.481z M50,67.209c2.596,0,4.701,2.105,4.701,4.701c0,2.596-2.105,4.701-4.701,4.701   c-2.597,0-4.701-2.105-4.701-4.701C45.299,69.313,47.404,67.209,50,67.209z"/><circle cx="50" cy="71.91" r="1.432"/><path d="M71.191,80.481c4.726,0,8.572-3.845,8.572-8.572c0-4.726-3.845-8.572-8.572-8.572s-8.572,3.845-8.572,8.572   C62.619,76.636,66.464,80.481,71.191,80.481z M71.191,67.209c2.596,0,4.701,2.105,4.701,4.701c0,2.596-2.105,4.701-4.701,4.701   s-4.701-2.105-4.701-4.701C66.489,69.313,68.594,67.209,71.191,67.209z"/><circle cx="71.191" cy="71.91" r="1.432"/></g></svg>
