<svg xmlns="http://www.w3.org/2000/svg" xmlns:xlink="http://www.w3.org/1999/xlink" version="1.1" x="0px" y="0px" viewBox="0 0 100 125" enable-background="new 0 0 100 100" xml:space="preserve"><path fill="#000000" d="M28.4,64.1c6.5-7.5,10.5-20,10.3-35.5c0,0-5,0-5,0c-7-0.2-9,5.1-10.8,8.2h-2.5c5.2-10.2,1.8-17.2,22-17.2  h37.2v9h-14c-3.3,30.6-2.8,35,2,37.8c2.2,1.3,9,1.9,9.9-7h2.3c0,20.6-24.5,22.8-25,5.1c-0.1-2.7,0.8-13.8,2.8-36H44.2  c0,0-2.5,31.5-3.6,35.9c-0.8,3.2-1.4,10.7-7.9,11.6C28.2,76.8,21.8,71.6,28.4,64.1z"/></svg>
