<svg xmlns="http://www.w3.org/2000/svg" xmlns:xlink="http://www.w3.org/1999/xlink" version="1.1" x="0px" y="0px" viewBox="0 0 100 125" enable-background="new 0 0 100 100" xml:space="preserve"><g><g><path d="M80.78,52.456c0-14.725-11.983-26.704-26.711-26.704c-1.993,0-4.989,0.307-6.338,0.457v-0.306    c0-1.994-1.623-3.617-3.616-3.617H42.82V11.8h1.062c0.554,0,1.003-0.449,1.003-1.003V6.003C44.885,5.449,44.436,5,43.882,5h-9.325    c-0.554,0-1.003,0.449-1.003,1.003v4.794c0,0.554,0.449,1.003,1.003,1.003h1.062v10.485h-1.295c-1.994,0-3.617,1.623-3.617,3.617    v19.875c0,1.729,1.222,3.175,2.846,3.53v4.412c0,0.554,0.449,1.003,1.003,1.003h9.325c0.554,0,1.003-0.449,1.003-1.003v-4.412    c1.624-0.355,2.846-1.801,2.846-3.53V35.91c1.059-0.228,4.29-0.885,6.338-0.885c9.616,0,17.439,7.82,17.439,17.431    c0,6.421-3.613,12.37-9.26,15.384c-1.248-1.435-3.019-2.256-4.942-2.256c-0.881,0-1.728,0.18-2.511,0.503h-29.23    c-0.894,0-1.741,0.351-2.392,0.992c-0.637,0.646-0.988,1.491-0.988,2.379c0,1.864,1.516,3.379,3.379,3.379H48.57l-9.003,11.974    c-0.024,0.032-0.036,0.068-0.056,0.101H22.857c-2.006,0-3.637,1.631-3.637,3.637v2.812c0,2.006,1.631,3.637,3.637,3.637h52.949    c2.006,0,3.637-1.631,3.637-3.637v-2.812c0-2.006-1.631-3.637-3.637-3.637H75.11c-0.049-0.083-0.097-0.169-0.168-0.235    L67.891,75.3C75.865,70.47,80.78,61.828,80.78,52.456z M45.724,45.778c0,0.888-0.722,1.61-1.61,1.61h-0.233h-9.325h-0.233    c-0.888,0-1.61-0.723-1.61-1.61V25.903c0-0.888,0.723-1.61,1.61-1.61h1.295h7.201h1.295c0.888,0,1.61,0.723,1.61,1.61V45.778z     M42.379,84.412l11.278-15c0.87-1.158,2.2-1.821,3.648-1.821c1.448,0,2.778,0.664,3.648,1.821l11.278,15H42.379z M66.678,73.688    l-3.185-4.236c6.123-3.41,10.02-9.95,10.02-16.996c0-10.718-8.723-19.438-19.445-19.438c-2.023,0-4.939,0.549-6.338,0.84v-5.629    c1.175-0.133,4.352-0.47,6.338-0.47c13.622,0,24.704,11.079,24.704,24.698C78.773,61.191,74.155,69.24,66.678,73.688z"/><circle cx="57.305" cy="72.336" r="2.543"/></g></g></svg>
