<svg xmlns="http://www.w3.org/2000/svg" xmlns:xlink="http://www.w3.org/1999/xlink" xml:space="preserve" style="shape-rendering:geometricPrecision;text-rendering:geometricPrecision;image-rendering:optimizeQuality;" viewBox="0 0 6.82666 8.533325000000001" x="0px" y="0px" fill-rule="evenodd" clip-rule="evenodd"><defs><style type="text/css">

    .fil1 {fill:none}
    .fil0 {fill:black;fill-rule:nonzero}

  </style></defs><g><path class="fil0" d="M1.64756 3.65462l3.53154 0c0.0441811,0 0.08,0.0358189 0.08,0.08l0 2.15871c0,0.0441811 -0.0358189,0.08 -0.08,0.08l-3.53154 0c-0.0441811,0 -0.08,-0.0358189 -0.08,-0.08l0 -2.15871c0,-0.0441811 0.0358189,-0.08 0.08,-0.08zm3.45154 0.16l-3.37154 0 0 1.99871 3.37154 0 0 -1.99871z"/><path class="fil0" d="M2.29252 2.67942l2.24276 0c0.0298307,0 0.0558465,0.0163307 0.0696024,0.0405394l0.640783 0.970598 -0.066563 0.044063 0.0667638 -0.0440748c0.0243386,0.0368701 0.0141811,0.0865 -0.022689,0.110839 -0.013874,0.00915748 -0.0295551,0.0134331 -0.0450157,0.0132362l-3.5306 0c-0.0441811,0 -0.08,-0.0358189 -0.08,-0.08 0,-0.0181772 0.00606693,-0.0349331 0.0162795,-0.0483701l0.640921 -0.970811 -0.000145669 -9.44882e-005c0.0155906,-0.0236181 0.041563,-0.0362756 0.0679094,-0.0359252zm2.19992 0.16l-2.15822 0 -0.538189 0.815201 3.23461 0 -0.538193 -0.815201z"/><path class="fil0" d="M2.95414 3.16702c-0.0441811,0 -0.08,0.0358189 -0.08,0.08 0,0.0441811 0.0358189,0.08 0.08,0.08l0.91839 0c0.0441811,0 0.08,-0.0358189 0.08,-0.08 0,-0.0441811 -0.0358189,-0.08 -0.08,-0.08l-0.91839 0z"/><path class="fil0" d="M3.16247 0.853331l0.511268 0c0.0441811,0 0.08,0.0358189 0.08,0.08l0 1.09402 0.0999016 0c0.0441811,0 0.08,0.0358189 0.08,0.08 0,0.0222638 -0.00909843,0.0423976 -0.0237756,0.0569016l-0.435197 0.435197 3.93701e-006 3.93701e-006c-0.0312402,0.0312402 -0.0818937,0.0312402 -0.113134,0l-0.000287402 -0.000295276 -0.43524 -0.435244 -3.93701e-006 3.93701e-006c-0.0312402,-0.0312402 -0.0312402,-0.0818937 0,-0.113134 0.0156181,-0.015622 0.0360945,-0.0234291 0.0565669,-0.0234291l0 -3.93701e-006 0.0998976 0 0 -1.09402c0,-0.0441811 0.0358189,-0.08 0.08,-0.08zm0.431268 0.16l-0.351268 0 0 1.09402c0,0.04 -0.0293661,0.0731496 -0.0677126,0.079063l0.243346 0.243346 0.243346 -0.243346c-0.0383504,-0.00591339 -0.0677126,-0.0390591 -0.0677126,-0.079063l0 -1.09402z"/></g><rect class="fil1" width="6.82666" height="6.82666"/></svg>
