<svg xmlns="http://www.w3.org/2000/svg" xmlns:xlink="http://www.w3.org/1999/xlink"><symbol viewBox="0 0 100 125" id="icon-books" xmlns="http://www.w3.org/2000/svg"><title>icons_books_4</title><path d="M47.79 3.93a9.2 9.2 0 0 0-9.16 2.46L5.31 40.93a7.27 7.27 0 0 0-2.5 2.59l-.65 1.57a7.27 7.27 0 0 0 3.09 8.15 6.87 6.87 0 0 0 .77.42c-.19.09-.37.18-.55.29a7.22 7.22 0 0 0-3.59 6.28 7.32 7.32 0 0 0 3.37 6.14 6.9 6.9 0 0 0 .77.42c-.19.09-.37.18-.55.29a7.22 7.22 0 0 0-3.59 6.28 7.31 7.31 0 0 0 3.37 6.14 7 7 0 0 0 1.82.84l50.11 15.1 1.3.39.7-.73L95 57.93V17.39L93.74 17zm-7.72 3.85a7.19 7.19 0 0 1 6.62-2L13.2 40.7l-1.94-.58h-.13a7.59 7.59 0 0 0-.8-.18H9.17zM57.19 84v9.3L7.83 78.47l-.19-.05a5 5 0 0 1-1.3-.6 5.31 5.31 0 0 1-2.45-4.45 5.31 5.31 0 0 1 5.27-5.29 5.43 5.43 0 0 1 1.54.23l46.49 14zm0-13.13v9.3L7.83 65.34l-.19-.05a5 5 0 0 1-1.3-.6 5.31 5.31 0 0 1-2.45-4.45 5.29 5.29 0 0 1 6.81-5.06l18.84 5.68V71l6.84-4.72 7.26 9.39V65.09l13.55 4.08zm-25.66-3.63v-12.6l10.1 3v12.22l-4.83-6.25zm25.65-.16L43.63 63v-6.8L29.53 52v6.8L7.82 52.21l-.19-.05a5 5 0 0 1-1.3-.6 5.31 5.31 0 0 1-2.45-4.46 5.24 5.24 0 0 1 2.61-4.56 5.16 5.16 0 0 1 3.09-.71h.55l.23.05.34.08L57.19 56zm.7-12.91L15.35 41.35l33.54-35 43.27 12.3zm35.15 3L59.19 92.21V82L93 46.88zM93 44L59.19 79.08V68.84L93 33.75zm0-13.13L59.19 66V55.71L93 20.62z"/><path d="M49.1 13.75L28.69 35.27 59 44.42l22.12-22.48zm9.31 28.4l-26-7.87L49.74 16l27.51 7z"/></symbol><symbol viewBox="0 0 6827 8533.75" fill-rule="evenodd" clip-rule="evenodd" shape-rendering="geometricPrecision" text-rendering="geometricPrecision" image-rendering="optimizeQuality" id="icon-donate" xmlns="http://www.w3.org/2000/svg"><defs><style>.bfil1{fill:none}.bfil0{fill:#000;fill-rule:nonzero}</style></defs><path class="bfil0" d="M2013 1578h2625c44 0 80 36 80 80v318H1933v-318c0-44 36-80 80-80zm2705 558v245H1933v-245h2785zm0 405v245H1933v-245h2785zm0 405v318c0 44-36 80-80 80H2013c-44 0-80-36-80-80v-318h2785z"/><path class="bfil0" d="M2493 853h1667c30 0 56 16 70 41l475 720c24 37 14 87-23 111-14 9-30 13-45 13H2013c-44 0-80-36-80-80 0-18 6-35 16-48l476-720c16-24 42-36 68-36zM1141 4227c-132-460-14-1405-3-1492 1-21 10-42 27-57 332-289 448 85 462 135 3 8 4 16 4 25v884l26 108 38 66 248 184-169-228c-8-9-14-20-17-32-174-650 319-389 376-357 9 4 17 10 24 18l1027 1116c15 15 25 35 25 58v1239c0 44-36 80-80 80h-911c-44 0-80-36-80-80v-677c-175-107-872-555-997-990zM5543 4227c132-460 14-1405 3-1492-1-21-10-42-27-57-332-289-448 85-462 135-3 8-4 16-4 25v884l-26 108-38 66-248 184 169-228c8-9 14-20 17-32 174-650-319-389-376-357-9 4-17 10-24 18L3500 4597c-15 15-25 35-25 58v1239c0 44 36 80 80 80h911c44 0 80-36 80-80v-677c175-107 872-555 997-990z"/><path class="bfil1" d="M0 0h6827v6827H0z"/><text y="6842" font-size="5" font-weight="bold" font-family="'Helvetica Neue', Helvetica, Arial-Unicode, Arial, Sans-serif">Created by IYIKON</text><text y="6847" font-size="5" font-weight="bold" font-family="'Helvetica Neue', Helvetica, Arial-Unicode, Arial, Sans-serif">from the Noun Project</text></symbol><symbol viewBox="0 0 6.82666 8.533325000000001" fill-rule="evenodd" clip-rule="evenodd" shape-rendering="geometricPrecision" text-rendering="geometricPrecision" image-rendering="optimizeQuality" id="icon-donate-box" xmlns="http://www.w3.org/2000/svg"><defs><style>.cfil1{fill:none}.cfil0{fill:#000;fill-rule:nonzero}</style></defs><path class="cfil0" d="M1.648 3.655h3.531a.08.08 0 0 1 .08.08v2.158a.08.08 0 0 1-.08.08H1.648a.08.08 0 0 1-.08-.08V3.735a.08.08 0 0 1 .08-.08zm3.451.16H1.728v1.998h3.371V3.815z"/><path class="cfil0" d="M2.293 2.68h2.242a.08.08 0 0 1 .07.04l.64.97-.066.045.067-.044a.08.08 0 0 1-.068.124h-3.53a.08.08 0 0 1-.064-.129l.64-.97a.08.08 0 0 1 .069-.037zm2.2.16H2.333l-.538.815h3.235l-.539-.816z"/><path class="cfil0" d="M2.954 3.167a.08.08 0 0 0 0 .16h.919a.08.08 0 0 0 0-.16h-.919zM3.162.853h.512a.08.08 0 0 1 .08.08v1.094h.1a.08.08 0 0 1 .056.137l-.435.435a.08.08 0 0 1-.113 0l-.436-.435a.08.08 0 0 1 .057-.137h.1V.933a.08.08 0 0 1 .08-.08zm.432.16h-.352v1.094a.08.08 0 0 1-.067.08l.243.243.243-.244a.08.08 0 0 1-.067-.079V1.013z"/><path class="cfil1" d="M0 0h6.827v6.827H0z"/></symbol><symbol viewBox="0 0 100 125" id="icon-engineering" xmlns="http://www.w3.org/2000/svg"><path d="M76.625 5.219c-.295-.05-.576.173-.625.468l-.594 3.47c-1.43.095-2.87.377-4.281.905a15.148 15.148 0 0 0-3.844 2.126l-2.719-2.25c-.23-.19-.56-.138-.75.093l-3.718 4.5a.525.525 0 0 0 .062.75l2.75 2.25a15.091 15.091 0 0 0-1.437 8.563l-3.313 1.218a.528.528 0 0 0-.312.688l2.062 5.469c.105.28.407.417.688.312l3.281-1.218c1.667 2.495 4.043 4.376 6.719 5.5L70 41.53a.538.538 0 0 0 .438.625l5.75.969a.538.538 0 0 0 .624-.438l.594-3.468c1.43-.096 2.87-.41 4.281-.938a15.145 15.145 0 0 0 3.844-2.125l2.719 2.25c.231.19.56.169.75-.062l3.719-4.5a.563.563 0 0 0-.063-.782l-2.75-2.25a14.997 14.997 0 0 0 1.438-8.53l3.312-1.25a.528.528 0 0 0 .313-.688l-2.063-5.469a.528.528 0 0 0-.687-.313l-3.281 1.25a15.167 15.167 0 0 0-6.72-5.53l.594-3.47a.538.538 0 0 0-.437-.625l-5.75-.968zM76.813 14a10.224 10.224 0 0 1 9.124 6.625c1.97 5.264-.705 11.124-5.968 13.094-5.264 1.97-11.124-.705-13.094-5.969-1.97-5.264.705-11.124 5.969-13.094 1.316-.492 2.648-.712 3.969-.656zm-23.47 17.344c-.165-.028-.315.053-.343.218l-.531 3.188c-1.982-.098-4 .098-6 .594l-1.125-3.032c-.06-.157-.25-.215-.407-.156l-3.968 1.469c-.157.059-.215.249-.157.406l1.126 3a20.668 20.668 0 0 0-4.907 3.5l-2.5-2.031c-.13-.107-.3-.098-.406.031l-2.688 3.282c-.106.13-.098.299.032.406l2.468 2.062a20.756 20.756 0 0 0-2.468 5.469l-3.188-.531a.298.298 0 0 0-.343.25l-.72 4.187a.298.298 0 0 0 .25.344l3.188.531c-.098 1.981.099 4 .594 6l-3.031 1.125a.326.326 0 0 0-.188.407l1.5 3.968c.06.157.218.215.375.156l3.032-1.124a20.658 20.658 0 0 0 3.5 4.906l-2.063 2.5c-.107.13-.067.3.063.406l3.25 2.719c.13.106.33.067.437-.063l2.063-2.469a20.854 20.854 0 0 0 5.468 2.5l-.531 3.157a.298.298 0 0 0 .25.344l4.188.718a.298.298 0 0 0 .343-.25l.532-3.187c1.98.098 4-.067 6-.563l1.124 3c.06.157.218.247.376.188l3.968-1.5c.157-.06.247-.218.188-.375l-1.125-3.031a20.663 20.663 0 0 0 4.906-3.5l2.5 2.062c.13.107.3.067.406-.063l2.688-3.25c.106-.13.098-.33-.031-.437l-2.5-2.031a21.051 21.051 0 0 0 2.5-5.5l3.187.531a.298.298 0 0 0 .344-.25l.719-4.188a.298.298 0 0 0-.25-.343l-3.188-.532c.098-1.981-.098-4-.594-6l3.031-1.124c.158-.06.247-.218.188-.376l-1.5-3.968c-.059-.157-.218-.247-.375-.188l-3.031 1.125a20.67 20.67 0 0 0-3.5-4.906l2.062-2.469c.107-.13.067-.33-.062-.437l-3.25-2.688c-.13-.107-.331-.098-.438.032l-2.062 2.5a20.845 20.845 0 0 0-5.469-2.5l.531-3.188a.298.298 0 0 0-.25-.344l-4.187-.687zM16.97 37.875a.334.334 0 0 0-.25.281l-.375 2.219a9.846 9.846 0 0 0-2.782.594 9.729 9.729 0 0 0-2.468 1.375l-1.75-1.438c-.15-.122-.346-.117-.469.032l-2.406 2.906c-.123.149-.087.377.062.5l1.75 1.437a9.673 9.673 0 0 0-.937 5.5l-2.125.813c-.18.067-.255.257-.188.437l1.313 3.532c.067.18.257.255.437.187l2.125-.781A9.658 9.658 0 0 0 13.22 59l-.375 2.25a.35.35 0 0 0 .281.406l3.719.625A.35.35 0 0 0 17.25 62l.375-2.25a9.651 9.651 0 0 0 2.75-.594 9.727 9.727 0 0 0 2.469-1.375l1.75 1.469c.149.123.377.086.5-.063l2.406-2.906c.123-.149.086-.377-.063-.5l-1.75-1.437a9.665 9.665 0 0 0 .907-5.5l2.125-.782a.378.378 0 0 0 .218-.468l-1.312-3.5a.378.378 0 0 0-.469-.219l-2.125.781a9.658 9.658 0 0 0-4.312-3.531l.375-2.25a.35.35 0 0 0-.282-.406l-3.687-.594a.445.445 0 0 0-.156 0zm33.843 1.719a16.066 16.066 0 0 1 9.47 2.625l-5.907 7.187a6.873 6.873 0 0 0-3.688-.625l-3.25-8.687a15.76 15.76 0 0 1 3.376-.5zm-6.5 1.656l3.25 8.688a6.762 6.762 0 0 0-2.343 2.874l-9.157-1.5c1.18-4.256 4.083-7.992 8.25-10.062zm-27.687 2.281a6.556 6.556 0 1 1-1.938.406 6.604 6.604 0 0 1 1.938-.406zm46.219.813a15.964 15.964 0 0 1 3.562 5.625 15.868 15.868 0 0 1 1 6.562L58.25 55a6.765 6.765 0 0 0-.406-1.844 6.763 6.763 0 0 0-.907-1.656l5.907-7.156zm-11.25 7.687a3.492 3.492 0 0 1 3.156 2.282 3.522 3.522 0 0 1-2.063 4.562c-1.844.69-3.84-.249-4.53-2.094a3.488 3.488 0 0 1 2.062-4.531 3.483 3.483 0 0 1 1.375-.219zM35.5 54.563l9.156 1.53c.049.618.18 1.238.407 1.844.227.607.537 1.16.906 1.657l-5.907 7.156a15.82 15.82 0 0 1-3.562-5.594 16 16 0 0 1-1-6.593zm22.188 3.718l9.156 1.532a15.954 15.954 0 0 1-8.281 10.03l-3.25-8.687a6.835 6.835 0 0 0 2.374-2.875zM48.53 61.72c1.13.535 2.41.766 3.688.625L55.469 71a15.98 15.98 0 0 1-12.844-2.125l5.906-7.156zm-19 8.625c-.19-.032-.374.122-.406.312l-.375 2.219a9.64 9.64 0 0 0-2.75.594 9.729 9.729 0 0 0-2.469 1.375l-1.75-1.438c-.149-.122-.377-.117-.5.031l-2.375 2.907c-.122.149-.117.377.032.5l1.75 1.437a9.658 9.658 0 0 0-.907 5.5l-2.125.813c-.18.067-.286.257-.218.437l1.312 3.531c.068.181.288.256.469.188l2.125-.781a9.658 9.658 0 0 0 4.312 3.531l-.375 2.25a.35.35 0 0 0 .282.406l3.718.625c.19.032.343-.09.375-.281l.375-2.25a9.857 9.857 0 0 0 2.782-.594 9.727 9.727 0 0 0 2.468-1.375l1.75 1.469c.15.123.346.086.469-.063l2.406-2.906c.123-.149.087-.377-.062-.5l-1.75-1.437a9.68 9.68 0 0 0 .937-5.5l2.125-.781c.18-.068.255-.289.188-.47l-1.313-3.53c-.067-.181-.257-.256-.437-.188l-2.125.781a9.658 9.658 0 0 0-4.313-3.531l.375-2.25a.35.35 0 0 0-.281-.406l-3.719-.625zM29.656 76a6.595 6.595 0 0 1 5.875 4.281 6.556 6.556 0 1 1-8.437-3.844c.848-.317 1.711-.473 2.562-.437z" fill-rule="evenodd"/></symbol><symbol viewBox="0 0 100 125" id="icon-microscope" xmlns="http://www.w3.org/2000/svg"><path d="M80.78 52.456c0-14.725-11.983-26.704-26.711-26.704-1.993 0-4.989.307-6.338.457v-.306a3.621 3.621 0 0 0-3.616-3.617H42.82V11.8h1.062c.554 0 1.003-.449 1.003-1.003V6.003c0-.554-.449-1.003-1.003-1.003h-9.325c-.554 0-1.003.449-1.003 1.003v4.794c0 .554.449 1.003 1.003 1.003h1.062v10.485h-1.295a3.622 3.622 0 0 0-3.617 3.617v19.875a3.621 3.621 0 0 0 2.846 3.53v4.412c0 .554.449 1.003 1.003 1.003h9.325c.554 0 1.003-.449 1.003-1.003v-4.412a3.621 3.621 0 0 0 2.846-3.53V35.91c1.059-.228 4.29-.885 6.338-.885 9.616 0 17.439 7.82 17.439 17.431 0 6.421-3.613 12.37-9.26 15.384a6.501 6.501 0 0 0-4.942-2.256 6.57 6.57 0 0 0-2.511.503h-29.23a3.39 3.39 0 0 0-2.392.992 3.375 3.375 0 0 0-.988 2.379 3.382 3.382 0 0 0 3.379 3.379H48.57l-9.003 11.974c-.024.032-.036.068-.056.101H22.857a3.64 3.64 0 0 0-3.637 3.637v2.812a3.64 3.64 0 0 0 3.637 3.637h52.949a3.64 3.64 0 0 0 3.637-3.637v-2.812a3.64 3.64 0 0 0-3.637-3.637h-.696c-.049-.083-.097-.169-.168-.235L67.891 75.3A26.71 26.71 0 0 0 80.78 52.456zm-35.056-6.678c0 .888-.722 1.61-1.61 1.61h-9.791c-.888 0-1.61-.723-1.61-1.61V25.903c0-.888.723-1.61 1.61-1.61H44.114c.888 0 1.61.723 1.61 1.61v19.875zm-3.345 38.634l11.278-15a4.524 4.524 0 0 1 3.648-1.821c1.448 0 2.778.664 3.648 1.821l11.278 15H42.379zm24.299-10.724l-3.185-4.236c6.123-3.41 10.02-9.95 10.02-16.996 0-10.718-8.723-19.438-19.445-19.438-2.023 0-4.939.549-6.338.84v-5.629c1.175-.133 4.352-.47 6.338-.47 13.622 0 24.704 11.079 24.704 24.698.001 8.734-4.617 16.783-12.094 21.231z"/><circle cx="57.305" cy="72.336" r="2.543"/></symbol><symbol viewBox="0 0 100 125" id="icon-pi" xmlns="http://www.w3.org/2000/svg"><path d="M28.4 64.1c6.5-7.5 10.5-20 10.3-35.5h-5c-7-.2-9 5.1-10.8 8.2h-2.5c5.2-10.2 1.8-17.2 22-17.2h37.2v9h-14c-3.3 30.6-2.8 35 2 37.8 2.2 1.3 9 1.9 9.9-7h2.3c0 20.6-24.5 22.8-25 5.1-.1-2.7.8-13.8 2.8-36H44.2S41.7 60 40.6 64.4c-.8 3.2-1.4 10.7-7.9 11.6-4.5.8-10.9-4.4-4.3-11.9z"/></symbol><symbol viewBox="0 0 100 125" id="icon-robot" xmlns="http://www.w3.org/2000/svg"><path d="M50 19.967c-6.193 0-11.232 5.039-11.232 11.232S43.807 42.43 50 42.43s11.232-5.039 11.232-11.232S56.193 19.967 50 19.967zm0 17.392a6.16 6.16 0 1 1 0-12.32 6.16 6.16 0 0 1 0 12.32z"/><circle cx="50" cy="31.198" r="1.877"/><path d="M45.05 50.141h3.697v-3.976H45.05zM38.846 50.141h3.698v-3.976h-3.698zM57.456 50.141h3.698v-3.976h-3.698zM51.253 45.905v4.236h3.697v-4.236h-1.848z"/><path d="M78.112 50.621c4.906 0 8.898-4.08 8.898-9.094V30.956c4.577-1.138 7.99-5.358 7.99-10.39 0-3.601-1.76-6.934-4.709-8.917l-2.751 4.09c1.585 1.066 2.531 2.871 2.531 4.828 0 3.183-2.478 5.772-5.522 5.772-3.049 0-5.529-2.589-5.529-5.772 0-1.956.947-3.761 2.532-4.828l-2.753-4.09c-2.948 1.985-4.708 5.318-4.708 8.917 0 5.03 3.413 9.249 7.99 10.388v10.572c0 2.296-1.781 4.164-3.969 4.164h-6.927V28.114c0-8.88-7.224-16.104-16.104-16.104H44.919c-8.88 0-16.104 7.224-16.104 16.104v17.577h-6.927c-2.188 0-3.969-1.868-3.969-4.164V30.955c4.578-1.14 7.99-5.359 7.99-10.388 0-3.6-1.76-6.933-4.707-8.917l-2.753 4.09c1.585 1.066 2.531 2.871 2.531 4.828 0 3.183-2.48 5.772-5.529 5.772-3.044 0-5.522-2.589-5.522-5.772 0-1.956.947-3.761 2.532-4.828l-2.753-4.09C6.76 13.633 5 16.967 5 20.566c0 5.032 3.413 9.252 7.99 10.39v10.571c0 5.014 3.992 9.094 8.898 9.094h6.927v4.848H27.69c-9.066 0-16.44 7.375-16.44 16.441 0 9.066 7.375 16.441 16.44 16.441h44.62c9.066 0 16.441-7.375 16.441-16.441 0-9.065-7.375-16.441-16.441-16.441h-1.125v-4.848h6.927zm-5.802 8.792c6.892 0 12.499 5.606 12.499 12.497S79.202 84.408 72.31 84.408H27.69c-6.891 0-12.498-5.606-12.498-12.498 0-6.891 5.607-12.497 12.498-12.497h44.62zm-39.289-3.944V28.114c0-6.544 5.354-11.898 11.898-11.898h10.162c6.544 0 11.898 5.354 11.898 11.898v27.355H33.021z"/><path d="M20.238 71.91c0 4.726 3.845 8.572 8.572 8.572s8.572-3.845 8.572-8.572c0-4.726-3.845-8.572-8.572-8.572s-8.572 3.846-8.572 8.572zm8.571-4.701a4.701 4.701 0 1 1 0 9.403 4.701 4.701 0 0 1 0-9.403z"/><circle cx="28.81" cy="71.91" r="1.432"/><path d="M50 80.481c4.726 0 8.571-3.845 8.571-8.572 0-4.726-3.845-8.572-8.571-8.572s-8.572 3.845-8.572 8.572c.001 4.727 3.846 8.572 8.572 8.572zm0-13.272a4.701 4.701 0 1 1 0 9.403 4.701 4.701 0 0 1 0-9.403z"/><circle cx="50" cy="71.91" r="1.432"/><path d="M71.191 80.481c4.726 0 8.572-3.845 8.572-8.572 0-4.726-3.845-8.572-8.572-8.572s-8.572 3.845-8.572 8.572c0 4.727 3.845 8.572 8.572 8.572zm0-13.272a4.701 4.701 0 1 1 0 9.403 4.701 4.701 0 0 1 0-9.403z"/><circle cx="71.191" cy="71.91" r="1.432"/></symbol></svg>